<svg width="33" height="32" viewBox="0 0 33 32" fill="none" xmlns="http://www.w3.org/2000/svg">
<mask id="mask0_212_4466" style="mask-type:alpha" maskUnits="userSpaceOnUse" x="0" y="0" width="33" height="32">
<rect x="0.5" width="32" height="32" fill="#D9D9D9"/>
</mask>
<g mask="url(#mask0_212_4466)">
<path d="M9.83333 28C9.1 28 8.47222 27.7389 7.95 27.2167C7.42778 26.6944 7.16667 26.0667 7.16667 25.3333V10.6667C7.16667 9.93332 7.42778 9.30555 7.95 8.78332C8.47222 8.2611 9.1 7.99999 9.83333 7.99999H12.5V3.99999C12.5 3.55555 12.7056 3.22221 13.1167 2.99999C13.5278 2.77777 13.9889 2.66666 14.5 2.66666H18.5C19.0111 2.66666 19.4722 2.77777 19.8833 2.99999C20.2944 3.22221 20.5 3.55555 20.5 3.99999V7.99999H23.1667C23.9 7.99999 24.5278 8.2611 25.05 8.78332C25.5722 9.30555 25.8333 9.93332 25.8333 10.6667V25.3333C25.8333 26.0667 25.5722 26.6944 25.05 27.2167C24.5278 27.7389 23.9 28 23.1667 28C23.1667 28.3778 23.0389 28.6944 22.7833 28.95C22.5278 29.2055 22.2111 29.3333 21.8333 29.3333C21.4556 29.3333 21.1389 29.2055 20.8833 28.95C20.6278 28.6944 20.5 28.3778 20.5 28H12.5C12.5 28.3778 12.3722 28.6944 12.1167 28.95C11.8611 29.2055 11.5444 29.3333 11.1667 29.3333C10.7889 29.3333 10.4722 29.2055 10.2167 28.95C9.96111 28.6944 9.83333 28.3778 9.83333 28ZM14.5 7.99999H18.5V4.66666H14.5V7.99999ZM9.83333 25.3333H23.1667V10.6667H9.83333V25.3333ZM11.1667 24H13.1667V12H11.1667V24ZM15.5 24H17.5V12H15.5V24ZM19.8333 24H21.8333V12H19.8333V24Z" fill="#1C1B1F"/>
</g>
</svg>
